<svg xmlns="http://www.w3.org/2000/svg" data-name="Calque 1" viewBox="0 0 1000 1000"><path d="M1000 186v628c0 102.72-83.28 186-186 186H186C83.28 1000 0 916.72 0 814V186c0-1.86.03-3.72.09-5.57C3.03 80.29 85.14 0 186 0h628c100.86 0 182.97 80.29 185.91 180.43.06 1.85.09 3.71.09 5.57" style="fill:#6562f8;stroke-width:0"/><path d="M417.51 424c0 19.33 15.67 35 35 35H664.5v82H452.51c-19.33 0-35 15.67-35 35s15.67 35 35 35H664.5v82H452.51c-6.82 0-13.51-.58-20.01-1.71-55.09-9.49-96.99-57.49-96.99-115.29 0-29.01 10.56-55.56 28.05-76-17.49-20.44-28.05-46.99-28.05-76 0-57.8 41.9-105.8 96.99-115.29 6.5-1.13 13.19-1.71 20.01-1.71H664.5v82H452.51c-19.33 0-35 15.67-35 35m445.4 76c-7.16 0-13.92 1.77-19.84 4.91-.47.25-.93.5-1.38.77-9.07 5.24-16.02 13.74-19.25 23.91-1.32 4.16-1.99 8.5-1.99 12.87h-.01V777.1c0 23.45-19.01 42.47-42.46 42.47h-46.36v-24h25.13c11.73 0 21.23-9.51 21.23-21.24V542.46c0-23.45 19.01-42.46 42.46-42.46-23.45 0-42.46-19.01-42.46-42.46V225.67c0-11.73-9.5-21.24-21.23-21.24h-25.13v-24h46.36c23.45 0 42.46 19.02 42.46 42.47v234.64h.01a42.3 42.3 0 0 0 10 27.36c3.17 3.77 6.98 6.96 11.24 9.42.45.27.91.52 1.38.77 5.92 3.14 12.68 4.91 19.84 4.91m-725.82 0c7.16 0 13.92 1.77 19.84 4.91.47.25.93.5 1.38.77 9.07 5.24 16.02 13.74 19.25 23.91 1.29 4.06 1.99 8.38 1.99 12.87V777.1c0 23.45 19.01 42.47 42.46 42.47h46.36v-24h-25.13c-11.73 0-21.23-9.51-21.23-21.24V542.46c0-23.45-19.01-42.46-42.46-42.46 23.45 0 42.46-19.01 42.46-42.46V225.67c0-11.73 9.5-21.24 21.23-21.24h25.13v-24h-46.36c-23.45 0-42.46 19.02-42.46 42.47v234.64a42.3 42.3 0 0 1-10 27.36 42.4 42.4 0 0 1-11.24 9.42c-.45.27-.91.52-1.38.77-5.92 3.14-12.68 4.91-19.84 4.91" style="stroke-width:0;fill:#fff"/></svg>